<svg xmlns="http://www.w3.org/2000/svg" xml:space="preserve" width="2000" height="561" viewBox="0 0 2000 561" data-version="1" data-id="lg_rqaN8YyQvjMOWtUth4"><g id="outer-wrapper" data-padding="20" transform="matrix(1,0,0,1,0,0)"><g id="inner-wrapper" transform="matrix(0.964349376114082,0,0,0.964349376114082,10,10)"><rect width="456.173" height="456.173" x="281.34349263634044" y="-325.2409715447154" fill="#ef0000" rx="29" ry="29" transform="translate(400 400)scale(1.23)"></rect><rect width="336.079" height="258.77" x="458.56050594269874" y="-248.884385" fill="none" rx="0" ry="0" transform="translate(400.5 400.18)"></rect><path fill="#fff" d="M972.2095059426988 208.980615V245.620615H939.0095059426988V352.110615H893.2095059426988V245.620615H859.9995059426988V208.980615ZM989.3795059426988 267.150615H977.9295059426988V237.610615H989.3795059426988V219.290615L1035.1795059426988 207.840615V237.610615H1050.9795059426988V267.150615H1035.1795059426988V319.360615Q1041.1295059426989 320.510615 1048.6895059426988 320.960615L1046.6295059426989 354.63061500000003Q1015.2595059426988 354.63061500000003 1005.8695059426988 351.19061500000004Q994.1895059426988 347.07061500000003 991.2095059426988 340.200615Q989.3795059426988 336.080615 989.3795059426988 330.580615ZM1097.2495059426988 263.94061500000004L1136.6395059426986 259.36061500000005V244.48061500000006Q1129.7695059426987 243.33061500000008 1114.4195059426988 243.33061500000008Q1099.0795059426987 243.33061500000008 1076.1795059426988 248.14061500000008L1070.2295059426988 214.2506150000001Q1098.1595059426988 205.5506150000001 1124.2695059426987 205.5506150000001Q1146.7095059426988 205.5506150000001 1156.7895059426987 208.3006150000001Q1166.859505942699 211.04061500000012 1171.6695059426988 214.9406150000001Q1182.2095059426988 223.8706150000001 1182.2095059426988 241.96061500000008Q1182.2095059426988 264.86061500000005 1163.1995059426988 274.9406150000001V276.0806150000001Q1185.8695059426987 285.47061500000007 1185.8695059426987 310.2006150000001Q1185.8695059426987 322.34061500000007 1182.0895059426987 330.9306150000001Q1178.3095059426987 339.5106150000001 1172.5895059426987 344.2106150000001Q1166.8595059426987 348.9006150000001 1157.4795059426988 351.6506150000001Q1143.5095059426988 355.54061500000006 1118.1995059426988 355.54061500000006Q1092.8995059426989 355.54061500000006 1067.4795059426988 349.59061500000007L1073.8895059426986 311.80061500000005Q1095.6495059426989 317.07061500000003 1110.7595059426988 317.07061500000003T1136.6395059426986 315.700615V301.040615L1097.2495059426988 297.150615Z " paint-order="stroke"></path></g><rect width="561" height="561" x="719.5" y="0" id="space-saver" fill="transparent" stroke="transparent"></rect></g></svg>